<mxfile host="app.diagrams.net" modified="2021-12-12T09:51:29.620Z" agent="5.0 (Windows NT 10.0; Win64; x64) AppleWebKit/537.36 (KHTML, like Gecko) Chrome/96.0.4664.93 Safari/537.36" etag="CrY-KBf-nctqGO5CR6ze" version="15.2.7" type="github">
  <diagram id="1TtkzJcrxPjyWFRE7SGS" name="Page-1">
    <mxGraphModel dx="1422" dy="772" grid="1" gridSize="10" guides="1" tooltips="1" connect="1" arrows="1" fold="1" page="1" pageScale="1" pageWidth="850" pageHeight="1100" math="0" shadow="0">
      <root>
        <mxCell id="0" />
        <mxCell id="1" parent="0" />
        <mxCell id="w17S3JuCTsw3o_YlWqG--4" value="IndexFile" style="text;html=1;align=center;verticalAlign=middle;resizable=0;points=[];autosize=1;strokeColor=none;fillColor=none;fontSize=14;" vertex="1" parent="1">
          <mxGeometry x="145" y="20" width="70" height="20" as="geometry" />
        </mxCell>
        <mxCell id="w17S3JuCTsw3o_YlWqG--26" style="rounded=0;orthogonalLoop=1;jettySize=auto;html=1;exitX=1;exitY=0.5;exitDx=0;exitDy=0;entryX=0;entryY=0;entryDx=0;entryDy=0;fontSize=14;endArrow=none;endFill=0;" edge="1" parent="1" source="w17S3JuCTsw3o_YlWqG--5" target="w17S3JuCTsw3o_YlWqG--12">
          <mxGeometry relative="1" as="geometry" />
        </mxCell>
        <mxCell id="w17S3JuCTsw3o_YlWqG--27" style="edgeStyle=none;rounded=0;orthogonalLoop=1;jettySize=auto;html=1;exitX=1;exitY=0.5;exitDx=0;exitDy=0;entryX=0;entryY=1;entryDx=0;entryDy=0;fontSize=14;endArrow=none;endFill=0;" edge="1" parent="1" source="w17S3JuCTsw3o_YlWqG--5" target="w17S3JuCTsw3o_YlWqG--12">
          <mxGeometry relative="1" as="geometry" />
        </mxCell>
        <mxCell id="w17S3JuCTsw3o_YlWqG--5" value="Header" style="rounded=0;whiteSpace=wrap;html=1;fontSize=14;fillColor=#f5f5f5;strokeColor=#666666;fontColor=#333333;" vertex="1" parent="1">
          <mxGeometry x="120" y="50" width="120" height="60" as="geometry" />
        </mxCell>
        <mxCell id="w17S3JuCTsw3o_YlWqG--6" value="40 byte" style="text;html=1;strokeColor=none;fillColor=none;align=center;verticalAlign=middle;whiteSpace=wrap;rounded=0;fontSize=14;" vertex="1" parent="1">
          <mxGeometry x="40" y="70" width="60" height="20" as="geometry" />
        </mxCell>
        <mxCell id="w17S3JuCTsw3o_YlWqG--30" style="edgeStyle=none;rounded=0;orthogonalLoop=1;jettySize=auto;html=1;exitX=1;exitY=0.5;exitDx=0;exitDy=0;entryX=0;entryY=0.5;entryDx=0;entryDy=0;fontSize=14;endArrow=none;endFill=0;" edge="1" parent="1" source="w17S3JuCTsw3o_YlWqG--7" target="w17S3JuCTsw3o_YlWqG--28">
          <mxGeometry relative="1" as="geometry" />
        </mxCell>
        <mxCell id="w17S3JuCTsw3o_YlWqG--34" style="edgeStyle=none;rounded=0;orthogonalLoop=1;jettySize=auto;html=1;exitX=1;exitY=0.25;exitDx=0;exitDy=0;entryX=0.5;entryY=0;entryDx=0;entryDy=0;fontSize=14;endArrow=none;endFill=0;" edge="1" parent="1" source="w17S3JuCTsw3o_YlWqG--7" target="w17S3JuCTsw3o_YlWqG--32">
          <mxGeometry relative="1" as="geometry" />
        </mxCell>
        <mxCell id="w17S3JuCTsw3o_YlWqG--7" value="Hash slots" style="rounded=0;whiteSpace=wrap;html=1;fontSize=14;fillColor=#d5e8d4;strokeColor=#82b366;" vertex="1" parent="1">
          <mxGeometry x="120" y="110" width="120" height="170" as="geometry" />
        </mxCell>
        <mxCell id="w17S3JuCTsw3o_YlWqG--145" style="rounded=0;orthogonalLoop=1;jettySize=auto;html=1;exitX=1;exitY=0.25;exitDx=0;exitDy=0;entryX=0;entryY=0;entryDx=0;entryDy=0;fontSize=14;endArrow=none;endFill=0;" edge="1" parent="1" source="w17S3JuCTsw3o_YlWqG--8" target="w17S3JuCTsw3o_YlWqG--88">
          <mxGeometry relative="1" as="geometry" />
        </mxCell>
        <mxCell id="w17S3JuCTsw3o_YlWqG--146" style="edgeStyle=none;rounded=0;orthogonalLoop=1;jettySize=auto;html=1;exitX=1;exitY=0.75;exitDx=0;exitDy=0;entryX=0;entryY=1;entryDx=0;entryDy=0;fontSize=14;endArrow=none;endFill=0;" edge="1" parent="1" source="w17S3JuCTsw3o_YlWqG--8" target="w17S3JuCTsw3o_YlWqG--129">
          <mxGeometry relative="1" as="geometry" />
        </mxCell>
        <mxCell id="w17S3JuCTsw3o_YlWqG--8" value="Index items" style="rounded=0;whiteSpace=wrap;html=1;fontSize=14;fillColor=#fff2cc;strokeColor=#d6b656;" vertex="1" parent="1">
          <mxGeometry x="120" y="280" width="120" height="350" as="geometry" />
        </mxCell>
        <mxCell id="w17S3JuCTsw3o_YlWqG--9" value="5,000,000&lt;br&gt;Hash slots" style="text;html=1;strokeColor=none;fillColor=none;align=center;verticalAlign=middle;whiteSpace=wrap;rounded=0;fontSize=14;" vertex="1" parent="1">
          <mxGeometry x="25" y="185" width="90" height="20" as="geometry" />
        </mxCell>
        <mxCell id="w17S3JuCTsw3o_YlWqG--10" value="20,000,000&lt;br&gt;Index items" style="text;html=1;strokeColor=none;fillColor=none;align=center;verticalAlign=middle;whiteSpace=wrap;rounded=0;fontSize=14;" vertex="1" parent="1">
          <mxGeometry x="30" y="445" width="80" height="20" as="geometry" />
        </mxCell>
        <mxCell id="w17S3JuCTsw3o_YlWqG--11" style="edgeStyle=orthogonalEdgeStyle;rounded=0;orthogonalLoop=1;jettySize=auto;html=1;exitX=0.5;exitY=1;exitDx=0;exitDy=0;fontSize=14;" edge="1" parent="1" source="w17S3JuCTsw3o_YlWqG--9" target="w17S3JuCTsw3o_YlWqG--9">
          <mxGeometry relative="1" as="geometry" />
        </mxCell>
        <mxCell id="w17S3JuCTsw3o_YlWqG--12" value="beginTimestamp" style="rounded=0;whiteSpace=wrap;html=1;fontSize=14;fillColor=#f5f5f5;strokeColor=#666666;fontColor=#333333;" vertex="1" parent="1">
          <mxGeometry x="330" y="50" width="120" height="60" as="geometry" />
        </mxCell>
        <mxCell id="w17S3JuCTsw3o_YlWqG--13" value="endTimestamp" style="rounded=0;whiteSpace=wrap;html=1;fontSize=14;fillColor=#f5f5f5;strokeColor=#666666;fontColor=#333333;" vertex="1" parent="1">
          <mxGeometry x="450" y="50" width="120" height="60" as="geometry" />
        </mxCell>
        <mxCell id="w17S3JuCTsw3o_YlWqG--14" value="beginPhyoffset" style="rounded=0;whiteSpace=wrap;html=1;fontSize=14;fillColor=#f5f5f5;strokeColor=#666666;fontColor=#333333;" vertex="1" parent="1">
          <mxGeometry x="570" y="50" width="120" height="60" as="geometry" />
        </mxCell>
        <mxCell id="w17S3JuCTsw3o_YlWqG--15" value="endPhyoffset" style="rounded=0;whiteSpace=wrap;html=1;fontSize=14;fillColor=#f5f5f5;strokeColor=#666666;fontColor=#333333;" vertex="1" parent="1">
          <mxGeometry x="690" y="50" width="120" height="60" as="geometry" />
        </mxCell>
        <mxCell id="w17S3JuCTsw3o_YlWqG--16" value="hashSlot&lt;br&gt;Count" style="rounded=0;whiteSpace=wrap;html=1;fontSize=14;fillColor=#f5f5f5;strokeColor=#666666;fontColor=#333333;" vertex="1" parent="1">
          <mxGeometry x="810" y="50" width="60" height="60" as="geometry" />
        </mxCell>
        <mxCell id="w17S3JuCTsw3o_YlWqG--17" value="index&lt;br&gt;Count" style="rounded=0;whiteSpace=wrap;html=1;fontSize=14;fillColor=#f5f5f5;strokeColor=#666666;fontColor=#333333;" vertex="1" parent="1">
          <mxGeometry x="870" y="50" width="60" height="60" as="geometry" />
        </mxCell>
        <mxCell id="w17S3JuCTsw3o_YlWqG--19" value="8 byte" style="text;html=1;strokeColor=none;fillColor=none;align=center;verticalAlign=middle;whiteSpace=wrap;rounded=0;fontSize=14;" vertex="1" parent="1">
          <mxGeometry x="355" y="30" width="70" height="20" as="geometry" />
        </mxCell>
        <mxCell id="w17S3JuCTsw3o_YlWqG--20" value="8 byte" style="text;html=1;strokeColor=none;fillColor=none;align=center;verticalAlign=middle;whiteSpace=wrap;rounded=0;fontSize=14;" vertex="1" parent="1">
          <mxGeometry x="475" y="30" width="70" height="20" as="geometry" />
        </mxCell>
        <mxCell id="w17S3JuCTsw3o_YlWqG--21" value="8 byte" style="text;html=1;strokeColor=none;fillColor=none;align=center;verticalAlign=middle;whiteSpace=wrap;rounded=0;fontSize=14;" vertex="1" parent="1">
          <mxGeometry x="595" y="30" width="70" height="20" as="geometry" />
        </mxCell>
        <mxCell id="w17S3JuCTsw3o_YlWqG--22" value="8 byte" style="text;html=1;strokeColor=none;fillColor=none;align=center;verticalAlign=middle;whiteSpace=wrap;rounded=0;fontSize=14;" vertex="1" parent="1">
          <mxGeometry x="715" y="30" width="70" height="20" as="geometry" />
        </mxCell>
        <mxCell id="w17S3JuCTsw3o_YlWqG--23" value="4 byte" style="text;html=1;strokeColor=none;fillColor=none;align=center;verticalAlign=middle;whiteSpace=wrap;rounded=0;fontSize=14;" vertex="1" parent="1">
          <mxGeometry x="805" y="30" width="70" height="20" as="geometry" />
        </mxCell>
        <mxCell id="w17S3JuCTsw3o_YlWqG--24" value="4 byte" style="text;html=1;strokeColor=none;fillColor=none;align=center;verticalAlign=middle;whiteSpace=wrap;rounded=0;fontSize=14;" vertex="1" parent="1">
          <mxGeometry x="865" y="30" width="70" height="20" as="geometry" />
        </mxCell>
        <mxCell id="w17S3JuCTsw3o_YlWqG--144" style="edgeStyle=orthogonalEdgeStyle;rounded=0;orthogonalLoop=1;jettySize=auto;html=1;exitX=0.5;exitY=1;exitDx=0;exitDy=0;entryX=1;entryY=0.5;entryDx=0;entryDy=0;fontSize=14;endArrow=classicThin;endFill=1;" edge="1" parent="1" source="w17S3JuCTsw3o_YlWqG--28" target="w17S3JuCTsw3o_YlWqG--85">
          <mxGeometry relative="1" as="geometry">
            <Array as="points">
              <mxPoint x="390" y="270" />
              <mxPoint x="650" y="270" />
              <mxPoint x="650" y="360" />
            </Array>
          </mxGeometry>
        </mxCell>
        <mxCell id="w17S3JuCTsw3o_YlWqG--28" value="index logic offset&lt;br&gt;(point to first index item)" style="rounded=0;whiteSpace=wrap;html=1;fontSize=14;fillColor=#d5e8d4;strokeColor=#82b366;" vertex="1" parent="1">
          <mxGeometry x="330" y="165" width="120" height="60" as="geometry" />
        </mxCell>
        <mxCell id="w17S3JuCTsw3o_YlWqG--143" style="edgeStyle=orthogonalEdgeStyle;rounded=0;orthogonalLoop=1;jettySize=auto;html=1;exitX=0.5;exitY=1;exitDx=0;exitDy=0;entryX=1;entryY=0.25;entryDx=0;entryDy=0;fontSize=14;endArrow=classicThin;endFill=1;" edge="1" parent="1" source="w17S3JuCTsw3o_YlWqG--32" target="w17S3JuCTsw3o_YlWqG--122">
          <mxGeometry relative="1" as="geometry">
            <Array as="points">
              <mxPoint x="535" y="250" />
              <mxPoint x="700" y="250" />
              <mxPoint x="700" y="475" />
            </Array>
          </mxGeometry>
        </mxCell>
        <mxCell id="w17S3JuCTsw3o_YlWqG--32" value="index logic offset&lt;br&gt;(point to first index item)" style="rounded=0;whiteSpace=wrap;html=1;fontSize=14;fillColor=#d5e8d4;strokeColor=#82b366;" vertex="1" parent="1">
          <mxGeometry x="475" y="165" width="120" height="60" as="geometry" />
        </mxCell>
        <mxCell id="w17S3JuCTsw3o_YlWqG--38" value="......" style="rounded=0;whiteSpace=wrap;html=1;fontSize=14;fillColor=#d5e8d4;strokeColor=#82b366;" vertex="1" parent="1">
          <mxGeometry x="620" y="165" width="120" height="60" as="geometry" />
        </mxCell>
        <mxCell id="w17S3JuCTsw3o_YlWqG--71" value="Header" style="swimlane;horizontal=0;fontSize=14;fillColor=#f5f5f5;strokeColor=#666666;fontColor=#333333;" vertex="1" parent="1">
          <mxGeometry y="20" width="950" height="90" as="geometry" />
        </mxCell>
        <mxCell id="w17S3JuCTsw3o_YlWqG--72" value="Hash Slot" style="swimlane;horizontal=0;fontSize=14;fillColor=#d5e8d4;strokeColor=#1A1A1A;" vertex="1" parent="1">
          <mxGeometry y="110" width="950" height="170" as="geometry" />
        </mxCell>
        <mxCell id="w17S3JuCTsw3o_YlWqG--29" value="4 byte" style="text;html=1;strokeColor=none;fillColor=none;align=center;verticalAlign=middle;whiteSpace=wrap;rounded=0;sketch=0;startSize=0;fontSize=14;" vertex="1" parent="w17S3JuCTsw3o_YlWqG--72">
          <mxGeometry x="360" y="35" width="60" height="20" as="geometry" />
        </mxCell>
        <mxCell id="w17S3JuCTsw3o_YlWqG--112" value="4 byte" style="text;html=1;strokeColor=none;fillColor=none;align=center;verticalAlign=middle;whiteSpace=wrap;rounded=0;sketch=0;startSize=0;fontSize=14;" vertex="1" parent="w17S3JuCTsw3o_YlWqG--72">
          <mxGeometry x="505" y="35" width="60" height="20" as="geometry" />
        </mxCell>
        <mxCell id="w17S3JuCTsw3o_YlWqG--106" value="Index Item" style="swimlane;horizontal=0;fontSize=14;strokeColor=#1A1A1A;fillColor=#fff2cc;" vertex="1" parent="1">
          <mxGeometry y="280" width="950" height="370" as="geometry" />
        </mxCell>
        <mxCell id="w17S3JuCTsw3o_YlWqG--117" value="" style="group" vertex="1" connectable="0" parent="w17S3JuCTsw3o_YlWqG--106">
          <mxGeometry x="330" y="160" width="300" height="80" as="geometry" />
        </mxCell>
        <mxCell id="w17S3JuCTsw3o_YlWqG--118" value="" style="group;container=0;fillColor=#fff2cc;strokeColor=#d6b656;" vertex="1" connectable="0" parent="w17S3JuCTsw3o_YlWqG--117">
          <mxGeometry width="300" height="80" as="geometry" />
        </mxCell>
        <mxCell id="w17S3JuCTsw3o_YlWqG--119" value="Key Hash" style="rounded=0;whiteSpace=wrap;html=1;fontSize=14;fillColor=#fff2cc;strokeColor=#d6b656;" vertex="1" parent="w17S3JuCTsw3o_YlWqG--117">
          <mxGeometry y="20" width="60" height="60" as="geometry" />
        </mxCell>
        <mxCell id="w17S3JuCTsw3o_YlWqG--120" value="Commit Log&lt;br&gt;Offset" style="rounded=0;whiteSpace=wrap;html=1;fontSize=14;fillColor=#fff2cc;strokeColor=#d6b656;" vertex="1" parent="w17S3JuCTsw3o_YlWqG--117">
          <mxGeometry x="60" y="20" width="120" height="60" as="geometry" />
        </mxCell>
        <mxCell id="w17S3JuCTsw3o_YlWqG--121" value="Time Diff" style="rounded=0;whiteSpace=wrap;html=1;fontSize=14;fillColor=#fff2cc;strokeColor=#d6b656;" vertex="1" parent="w17S3JuCTsw3o_YlWqG--117">
          <mxGeometry x="180" y="20" width="60" height="60" as="geometry" />
        </mxCell>
        <mxCell id="w17S3JuCTsw3o_YlWqG--122" value="Next Index Offset" style="rounded=0;whiteSpace=wrap;html=1;fontSize=14;fillColor=#fff2cc;strokeColor=#d6b656;" vertex="1" parent="w17S3JuCTsw3o_YlWqG--117">
          <mxGeometry x="240" y="20" width="60" height="60" as="geometry" />
        </mxCell>
        <mxCell id="w17S3JuCTsw3o_YlWqG--123" value="8 byte" style="text;html=1;strokeColor=none;fillColor=none;align=center;verticalAlign=middle;whiteSpace=wrap;rounded=0;fontSize=14;" vertex="1" parent="w17S3JuCTsw3o_YlWqG--117">
          <mxGeometry x="85" width="70" height="20" as="geometry" />
        </mxCell>
        <mxCell id="w17S3JuCTsw3o_YlWqG--124" value="4 byte" style="text;html=1;strokeColor=none;fillColor=none;align=center;verticalAlign=middle;whiteSpace=wrap;rounded=0;fontSize=14;" vertex="1" parent="w17S3JuCTsw3o_YlWqG--117">
          <mxGeometry x="242.5" width="55" height="20" as="geometry" />
        </mxCell>
        <mxCell id="w17S3JuCTsw3o_YlWqG--125" value="4 byte" style="text;html=1;strokeColor=none;fillColor=none;align=center;verticalAlign=middle;whiteSpace=wrap;rounded=0;fontSize=14;" vertex="1" parent="w17S3JuCTsw3o_YlWqG--117">
          <mxGeometry x="5" width="50" height="20" as="geometry" />
        </mxCell>
        <mxCell id="w17S3JuCTsw3o_YlWqG--126" value="4 byte" style="text;html=1;strokeColor=none;fillColor=none;align=center;verticalAlign=middle;whiteSpace=wrap;rounded=0;fontSize=14;" vertex="1" parent="w17S3JuCTsw3o_YlWqG--117">
          <mxGeometry x="187.5" width="45" height="20" as="geometry" />
        </mxCell>
        <mxCell id="w17S3JuCTsw3o_YlWqG--127" value="" style="group" vertex="1" connectable="0" parent="w17S3JuCTsw3o_YlWqG--106">
          <mxGeometry x="330" y="254" width="300" height="80" as="geometry" />
        </mxCell>
        <mxCell id="w17S3JuCTsw3o_YlWqG--128" value="" style="group;container=0;fillColor=#fff2cc;strokeColor=#d6b656;" vertex="1" connectable="0" parent="w17S3JuCTsw3o_YlWqG--127">
          <mxGeometry width="300" height="80" as="geometry" />
        </mxCell>
        <mxCell id="w17S3JuCTsw3o_YlWqG--129" value="Key Hash" style="rounded=0;whiteSpace=wrap;html=1;fontSize=14;fillColor=#fff2cc;strokeColor=#d6b656;" vertex="1" parent="w17S3JuCTsw3o_YlWqG--127">
          <mxGeometry y="20" width="60" height="60" as="geometry" />
        </mxCell>
        <mxCell id="w17S3JuCTsw3o_YlWqG--130" value="Commit Log&lt;br&gt;Offset" style="rounded=0;whiteSpace=wrap;html=1;fontSize=14;fillColor=#fff2cc;strokeColor=#d6b656;" vertex="1" parent="w17S3JuCTsw3o_YlWqG--127">
          <mxGeometry x="60" y="20" width="120" height="60" as="geometry" />
        </mxCell>
        <mxCell id="w17S3JuCTsw3o_YlWqG--131" value="Time Diff" style="rounded=0;whiteSpace=wrap;html=1;fontSize=14;fillColor=#fff2cc;strokeColor=#d6b656;" vertex="1" parent="w17S3JuCTsw3o_YlWqG--127">
          <mxGeometry x="180" y="20" width="60" height="60" as="geometry" />
        </mxCell>
        <mxCell id="w17S3JuCTsw3o_YlWqG--132" value="Next Index Offset" style="rounded=0;whiteSpace=wrap;html=1;fontSize=14;fillColor=#fff2cc;strokeColor=#d6b656;" vertex="1" parent="w17S3JuCTsw3o_YlWqG--127">
          <mxGeometry x="240" y="20" width="60" height="60" as="geometry" />
        </mxCell>
        <mxCell id="w17S3JuCTsw3o_YlWqG--133" value="8 byte" style="text;html=1;strokeColor=none;fillColor=none;align=center;verticalAlign=middle;whiteSpace=wrap;rounded=0;fontSize=14;" vertex="1" parent="w17S3JuCTsw3o_YlWqG--127">
          <mxGeometry x="85" width="70" height="20" as="geometry" />
        </mxCell>
        <mxCell id="w17S3JuCTsw3o_YlWqG--134" value="4 byte" style="text;html=1;strokeColor=none;fillColor=none;align=center;verticalAlign=middle;whiteSpace=wrap;rounded=0;fontSize=14;" vertex="1" parent="w17S3JuCTsw3o_YlWqG--127">
          <mxGeometry x="242.5" width="55" height="20" as="geometry" />
        </mxCell>
        <mxCell id="w17S3JuCTsw3o_YlWqG--135" value="4 byte" style="text;html=1;strokeColor=none;fillColor=none;align=center;verticalAlign=middle;whiteSpace=wrap;rounded=0;fontSize=14;" vertex="1" parent="w17S3JuCTsw3o_YlWqG--127">
          <mxGeometry x="5" width="50" height="20" as="geometry" />
        </mxCell>
        <mxCell id="w17S3JuCTsw3o_YlWqG--136" value="4 byte" style="text;html=1;strokeColor=none;fillColor=none;align=center;verticalAlign=middle;whiteSpace=wrap;rounded=0;fontSize=14;" vertex="1" parent="w17S3JuCTsw3o_YlWqG--127">
          <mxGeometry x="187.5" width="45" height="20" as="geometry" />
        </mxCell>
        <mxCell id="w17S3JuCTsw3o_YlWqG--142" style="edgeStyle=orthogonalEdgeStyle;rounded=0;orthogonalLoop=1;jettySize=auto;html=1;exitX=1;exitY=0.75;exitDx=0;exitDy=0;entryX=1;entryY=0.5;entryDx=0;entryDy=0;fontSize=14;endArrow=classicThin;endFill=1;" edge="1" parent="w17S3JuCTsw3o_YlWqG--106" source="w17S3JuCTsw3o_YlWqG--122" target="w17S3JuCTsw3o_YlWqG--132">
          <mxGeometry relative="1" as="geometry" />
        </mxCell>
        <mxCell id="w17S3JuCTsw3o_YlWqG--115" value="" style="group" vertex="1" connectable="0" parent="1">
          <mxGeometry x="330" y="310" width="300" height="80" as="geometry" />
        </mxCell>
        <mxCell id="w17S3JuCTsw3o_YlWqG--81" value="" style="group;container=0;fillColor=#fff2cc;strokeColor=#d6b656;" vertex="1" connectable="0" parent="w17S3JuCTsw3o_YlWqG--115">
          <mxGeometry width="300" height="80" as="geometry" />
        </mxCell>
        <mxCell id="w17S3JuCTsw3o_YlWqG--82" value="Key Hash" style="rounded=0;whiteSpace=wrap;html=1;fontSize=14;fillColor=#fff2cc;strokeColor=#d6b656;" vertex="1" parent="w17S3JuCTsw3o_YlWqG--115">
          <mxGeometry y="20" width="60" height="60" as="geometry" />
        </mxCell>
        <mxCell id="w17S3JuCTsw3o_YlWqG--83" value="Commit Log&lt;br&gt;Offset" style="rounded=0;whiteSpace=wrap;html=1;fontSize=14;fillColor=#fff2cc;strokeColor=#d6b656;" vertex="1" parent="w17S3JuCTsw3o_YlWqG--115">
          <mxGeometry x="60" y="20" width="120" height="60" as="geometry" />
        </mxCell>
        <mxCell id="w17S3JuCTsw3o_YlWqG--84" value="Time Diff" style="rounded=0;whiteSpace=wrap;html=1;fontSize=14;fillColor=#fff2cc;strokeColor=#d6b656;" vertex="1" parent="w17S3JuCTsw3o_YlWqG--115">
          <mxGeometry x="180" y="20" width="60" height="60" as="geometry" />
        </mxCell>
        <mxCell id="w17S3JuCTsw3o_YlWqG--85" value="Next Index Offset" style="rounded=0;whiteSpace=wrap;html=1;fontSize=14;fillColor=#fff2cc;strokeColor=#d6b656;" vertex="1" parent="w17S3JuCTsw3o_YlWqG--115">
          <mxGeometry x="240" y="20" width="60" height="60" as="geometry" />
        </mxCell>
        <mxCell id="w17S3JuCTsw3o_YlWqG--86" value="8 byte" style="text;html=1;strokeColor=none;fillColor=none;align=center;verticalAlign=middle;whiteSpace=wrap;rounded=0;fontSize=14;" vertex="1" parent="w17S3JuCTsw3o_YlWqG--115">
          <mxGeometry x="85" width="70" height="20" as="geometry" />
        </mxCell>
        <mxCell id="w17S3JuCTsw3o_YlWqG--87" value="4 byte" style="text;html=1;strokeColor=none;fillColor=none;align=center;verticalAlign=middle;whiteSpace=wrap;rounded=0;fontSize=14;" vertex="1" parent="w17S3JuCTsw3o_YlWqG--115">
          <mxGeometry x="242.5" width="55" height="20" as="geometry" />
        </mxCell>
        <mxCell id="w17S3JuCTsw3o_YlWqG--88" value="4 byte" style="text;html=1;strokeColor=none;fillColor=none;align=center;verticalAlign=middle;whiteSpace=wrap;rounded=0;fontSize=14;" vertex="1" parent="w17S3JuCTsw3o_YlWqG--115">
          <mxGeometry x="5" width="50" height="20" as="geometry" />
        </mxCell>
        <mxCell id="w17S3JuCTsw3o_YlWqG--89" value="4 byte" style="text;html=1;strokeColor=none;fillColor=none;align=center;verticalAlign=middle;whiteSpace=wrap;rounded=0;fontSize=14;" vertex="1" parent="w17S3JuCTsw3o_YlWqG--115">
          <mxGeometry x="187.5" width="45" height="20" as="geometry" />
        </mxCell>
      </root>
    </mxGraphModel>
  </diagram>
</mxfile>
